<svg width="128" height="25" viewBox="0 0 128 25" fill="none" xmlns="http://www.w3.org/2000/svg">
<path d="M41.801 16.6807C42.0729 16.0882 42.097 15.8415 42.097 14.2707C41.3935 14.3831 40.4448 14.5209 39.2825 14.7686C37.2833 15.2033 36.9422 15.953 36.9422 16.7048C36.9422 17.5687 37.6246 18.2972 38.9652 18.2972C40.2125 18.2972 41.2816 17.7947 41.801 16.6807ZM44.2712 19.6467L42.3931 19.6556C42.3931 19.6556 42.2301 18.8949 42.1785 18.0706C41.6322 18.6344 40.6199 19.8066 38.579 19.8066C36.4888 19.8066 34.9367 18.5652 34.9367 16.7499C34.9367 16.1786 35.0962 15.6117 35.4133 15.1349C36.0297 14.2249 37.1712 13.498 40.3724 13.2473L42.0729 13.1108V12.8389C42.0729 11.7249 42.0729 9.86122 39.6753 9.86122C38.1651 9.86122 37.6544 10.5924 37.4761 11.2536L35.8151 10.5592C35.8423 10.5017 35.8725 10.4414 35.9031 10.3841C36.5435 9.20368 37.793 8.47544 39.6083 8.47544C40.6021 8.47544 41.8914 8.72535 42.7344 9.38473C43.9298 10.293 43.9056 12.0814 43.9056 12.0814L43.9752 17.5955C43.9752 17.5955 44.0422 19.1957 44.2712 19.6467ZM104.272 16.6807C104.544 16.0882 104.566 15.8415 104.566 14.2707C103.865 14.3831 102.914 14.5209 101.751 14.7686C99.7546 15.2033 99.4142 15.953 99.4142 16.7048C99.4142 17.5687 100.097 18.2972 101.434 18.2972C102.685 18.2972 103.751 17.7947 104.272 16.6807ZM106.74 19.6467L104.861 19.6556C104.861 19.6556 104.699 18.8949 104.647 18.0706C104.104 18.6344 103.093 19.8066 101.048 19.8066C98.9585 19.8066 97.4088 18.5652 97.4088 16.7499C97.4088 16.1786 97.5686 15.6117 97.8855 15.1349C98.5018 14.2249 99.6401 13.498 102.841 13.2473L104.544 13.1108V12.8389C104.544 11.7249 104.544 9.86122 102.143 9.86122C100.637 9.86122 100.12 10.5924 99.9485 11.2536L98.2872 10.5592C98.3103 10.5017 98.3412 10.4414 98.3744 10.3841C99.0126 9.20368 100.265 8.47544 102.077 8.47544C103.074 8.47544 104.364 8.72535 105.206 9.38473C106.401 10.293 106.372 12.0814 106.372 12.0814L106.446 17.5955C106.446 17.5955 106.508 19.1957 106.74 19.6467ZM86.2338 17.5864C85.6175 18.6344 84.4309 19.8331 82.0882 19.8331C78.9137 19.8331 77.0897 17.6768 77.0897 14.0585C77.0897 10.0209 79.7535 8.47538 82.0212 8.47538C83.9959 8.47538 85.8846 9.56584 86.5204 12.2662C86.7237 13.1744 86.7237 13.9925 86.7237 14.4459H78.9985C78.9541 16.2424 79.7083 18.5166 82.2471 18.4748C83.2845 18.4558 84.0144 17.9849 84.4802 17.2485L86.2338 17.5864ZM79.0466 13.1503H84.748C84.5884 10.3389 82.9668 9.86116 81.8858 9.86116C80.3425 9.86116 79.2484 10.9938 79.0466 13.1503ZM65.7163 17.5864C65.1 18.6344 63.9136 19.8331 61.5731 19.8331C58.3962 19.8331 56.5691 17.6768 56.5691 14.0585C56.5691 10.0209 59.236 8.47538 61.5036 8.47538C63.4753 8.47538 65.3671 9.56584 66.0036 12.2662C66.2051 13.1744 66.2051 13.9925 66.2051 14.4459H58.4842C58.435 16.2424 59.1908 18.5166 61.7305 18.4748C62.7661 18.4558 63.4963 17.9849 63.9627 17.2485L65.7163 17.5864ZM58.5285 13.1503H64.2304C64.0714 10.3389 62.4493 9.86116 61.3682 9.86116C59.825 9.86116 58.7318 10.9938 58.5285 13.1503ZM95.2797 17.0429C94.9015 17.7801 94.1924 18.4473 92.7967 18.4473C91.5825 18.4473 89.5463 17.6833 89.5463 14.1376C89.5463 13.1835 89.7182 9.80403 92.6845 9.80403C94.1833 9.80403 94.8725 10.6196 95.1911 11.3237L96.8828 10.6171C95.8414 8.88252 93.9624 8.47852 92.6183 8.47852C89.1939 8.47852 87.5385 11.2334 87.5385 14.2739C87.5385 16.9041 88.9736 19.8331 92.7749 19.8331C94.9771 19.8331 96.2043 18.7701 96.8748 17.7098L95.2797 17.0429ZM67.2445 8.88904V19.6467H69.0497V13.5456C69.0497 12.7485 69.0497 11.9329 69.8477 11.139C70.4181 10.572 71.1039 10.3235 71.9008 10.3235C72.8827 10.3235 73.8878 10.7767 74.2048 11.7974C74.3201 12.1595 74.3201 12.4766 74.3201 13.5673V19.6467H76.12V13.2712C76.12 12.3621 76.12 11.7061 75.936 11.0696C75.4142 9.29643 73.7741 8.6108 72.4018 8.6108C71.7653 8.6108 70.0535 8.77128 69.0497 10.5268V8.88904H67.2445ZM45.549 5.50314V7.2467H53.5882L45.5425 17.8075V19.6467H55.9348V17.9485H47.7265L55.7324 7.26691V5.50314H45.549ZM29.3855 8.88904V19.6467H31.1885V14.6999C31.1885 13.778 31.1642 12.6849 31.6451 11.9056C32.2301 10.952 33.1003 10.5898 34.8697 10.577V8.71415C34.142 8.73845 32.2122 8.78343 31.1885 10.8124V8.88904H29.3855ZM25.8011 5.5L23.94 6.27696V8.88904H22.2338V10.3928H23.94V17.3001C23.9169 18.7046 23.9169 19.7195 26.0061 19.7195C26.6894 19.7195 27.438 19.5832 27.755 19.538V18.0488C27.3921 18.1609 26.9152 18.2972 26.5742 18.2972C25.8011 18.2972 25.8011 17.7535 25.8011 16.4843V10.3928H27.755V8.88904H25.8011V5.5ZM19.9508 16.65C19.9508 17.8043 19.0148 18.4166 17.4176 18.4166C16.1277 18.4166 15.2615 18.0544 14.7814 17.2209L12.8726 17.5557C13.6146 19.0758 15.1613 19.8034 17.3387 19.8034C20.2952 19.8034 21.8386 18.1665 21.8386 16.4241C21.8386 14.183 19.7731 13.5763 17.3958 13.0962C16.2488 12.8662 14.9015 12.4405 14.9015 11.4231C14.9015 10.6986 15.6083 9.86116 17.0247 9.86116C18.4713 9.86116 19.3353 10.8454 19.4674 11.2351L21.144 10.538C20.3766 9.073 18.8399 8.47538 17.2295 8.47538C14.745 8.47538 13.096 9.70215 13.096 11.6498C13.096 13.8657 14.9949 14.3008 16.8345 14.6999C18.4172 15.0406 19.9508 15.4302 19.9508 16.65ZM10.5345 19.6467H12.5194L7.36992 5.5H5.4063L0.0189209 19.6467H2.02141L3.60389 15.3092H8.99459L10.5345 19.6467ZM4.20424 13.7246L6.37036 7.84688L8.4333 13.7246H4.20424Z" fill="#A4A4A4"/>
<path d="M124.773 11.8163C123.447 11.3542 120.168 10.1295 116.708 9.67295C115.519 9.51658 115.039 9.94021 115.53 11.0769C116.012 12.1981 117.265 14.0776 118.578 15.4876C119.89 16.897 121.313 17.2754 121.765 15.1044C121.782 15.027 121.797 14.9491 121.812 14.8736C121.922 14.3144 122.004 13.7736 122.045 13.2995C121.463 13.0347 120.81 12.7523 120.158 12.4765C120.194 12.9749 120.253 13.8348 120.283 14.4962C120.287 14.5817 120.291 14.6633 120.293 14.7427C120.332 15.815 119.968 15.8114 119.359 15.3737C118.65 14.8656 116.48 11.9922 116.23 10.7231C116.219 10.6397 116.258 10.6371 116.301 10.6507C116.317 10.6567 116.334 10.6634 116.355 10.6719C116.359 10.6719 116.359 10.6719 116.36 10.6719C116.85 10.8646 118.481 11.5099 120.139 12.2098C120.801 12.4891 121.465 12.776 122.062 13.0472C122.65 13.3134 123.173 13.5618 123.565 13.7719C124.281 14.1555 124.559 14.4171 124.259 14.7243C122.767 16.2415 117.561 18.3992 115.763 21.0672C115.763 21.0672 115.756 21.0761 115.744 21.0928C115.723 21.1215 115.704 21.1537 115.686 21.1876C115.68 21.1977 115.676 21.2088 115.67 21.2181C115.582 21.381 115.455 21.6653 115.41 22.0104C115.334 22.5935 115.636 23.1259 116.472 23.3515C116.682 23.4143 116.92 23.4598 117.181 23.4857C117.226 23.4897 117.277 23.4938 117.328 23.4953C118.933 23.5733 123.1 22.6584 124.368 22.0936C125.678 21.5106 125.287 20.9306 124.907 20.6296C124.623 20.4024 123.164 19.5871 122.456 19.195C122.268 19.3163 122.118 19.411 121.932 19.5325C123.135 20.2693 123.612 20.6351 123.894 20.8512C124.002 20.9363 123.943 21.0364 123.782 21.0476C123.738 21.0517 123.703 21.0536 123.653 21.0573C122.51 21.1367 120.343 21.2891 119.326 21.3432C119.177 21.3528 119.009 21.3603 118.916 21.364C119.168 21.1277 119.452 20.9137 119.591 20.815C121.765 19.2826 125.391 17.1283 126.459 16.2022C127.246 15.5201 129.393 13.4311 124.773 11.8149L124.773 11.8163ZM119.497 17.5827C119.321 17.6944 119.145 17.8063 118.971 17.9222C116.943 16.7927 112.583 14.6155 112.205 14.4188C111.8 14.2088 111.095 13.9249 111.184 13.2522C111.31 12.3081 112.944 10.2413 113.638 9.39223C117.222 5.0001 118.92 3.50276 120.039 3.5C120.094 3.49986 120.147 3.50372 120.2 3.51041C121.391 3.66678 122.052 4.89998 122.131 10.6762C121.468 10.4707 120.733 10.2586 119.952 10.0629C119.888 9.22431 119.732 7.95723 119.672 7.51989C119.606 7.02645 119.51 6.83875 119.312 6.81187C119.086 6.78288 118.538 7.31033 118.041 7.82102C117.814 8.05233 117.175 8.70001 116.469 9.41205C115.88 9.37357 115.487 9.4971 115.269 9.78455C115.096 10.0168 115.058 10.3341 115.162 10.7328C114.78 11.1145 114.453 11.4438 114.245 11.6514C113.46 12.4351 112.632 13.0829 112.589 13.4013C112.555 13.6603 112.952 13.9301 113.517 14.2675C114.897 15.0935 118.294 16.9345 119.497 17.5827Z" fill="#A4A4A4"/>
</svg>
