<svg width="92" height="25" viewBox="0 0 92 25" fill="none" xmlns="http://www.w3.org/2000/svg">
<g clip-path="url(#clip0_3932_276)">
<path fill-rule="evenodd" clip-rule="evenodd" d="M34.5662 11.8382L34.5631 16.2326C34.2642 16.3481 33.6318 16.5138 32.4555 16.5138C29.5679 16.5138 27.7022 14.7983 27.7022 12.1428C27.7022 9.51047 29.629 7.80948 32.6109 7.80948C33.7385 7.80948 34.6159 7.97627 35.4545 8.35023L35.7187 8.46833L36.2729 6.73782L36.0668 6.64096C35.4556 6.35453 34.198 6.01992 32.6658 6.01992C27.7783 6.01992 25.5521 9.22663 25.5521 12.2054C25.5521 13.9339 26.1923 15.524 27.3091 16.5672C28.5444 17.7274 30.1827 18.292 32.3177 18.292C34.1767 18.292 35.7031 17.8367 36.4475 17.5658L36.6173 17.5031V11.8429L34.5662 11.8382ZM40.2224 18.1729H42.2973V6.13957H40.2224V18.1729ZM48.3223 16.3527V6.13957H46.2473V18.1729H53.8064V16.3527H48.3223ZM58.4816 16.3833V12.799H63.4726V11.0095H58.4816V7.92862H63.7632V6.13957H56.4066V18.1729H64.0434V16.3833H58.4816ZM72.9368 6.13957H70.8831L66.3447 18.1729H68.4399L69.7721 14.4984H74.0028L75.394 18.1729H77.5265L72.9368 6.13957ZM71.8714 8.50718C71.9869 8.87234 73.128 11.905 73.4636 12.7819H70.3061C70.3061 12.7819 71.759 8.87027 71.8714 8.50718ZM89.3226 7.72454C88.1338 6.60574 86.2847 6.03754 83.8275 6.03754L79.9557 6.04116V7.77012L83.872 7.78048C85.6745 7.78048 87.0223 8.21919 87.88 9.0847C88.5741 9.78447 88.9201 10.7437 88.9097 11.9361C88.9097 13.2579 88.4948 14.3679 87.7112 15.15C86.7985 16.0596 85.37 16.5382 83.5815 16.533C83.0392 16.533 82.4466 16.5257 82.0126 16.4812V11.0328H79.9557V18.1273L80.1883 18.1506C81.0875 18.2428 82.069 18.2853 83.3152 18.2853C85.8667 18.2853 87.9696 17.6207 89.2345 16.4139C90.4139 15.2578 91.0624 13.6459 91.0624 11.8744C91.0624 10.1792 90.4766 8.78325 89.3226 7.72454ZM18.7736 0.100141C18.7734 0.0823998 18.7665 0.065389 18.7541 0.0526526C18.7418 0.0399162 18.725 0.0324342 18.7073 0.0317677L18.7047 0.03125L18.6974 0.0322854C3.13889 1.51158 1.15509 12.2427 6.242 15.669C5.36509 19.5429 6.18191 19.4527 6.18191 19.4527C6.3394 18.2982 6.56721 17.1543 6.86407 16.0275C8.8489 8.47714 13.7607 1.8897 18.713 0.169545L18.7124 0.167474C18.7291 0.165589 18.7444 0.157716 18.7557 0.145325C18.7669 0.132934 18.7733 0.116873 18.7736 0.100141Z" fill="#A4A4A4"/>
<path fill-rule="evenodd" clip-rule="evenodd" d="M17.9517 2.56473C17.9514 2.54864 17.9455 2.53315 17.935 2.52096C17.9244 2.50878 17.91 2.50065 17.8941 2.49801C17.8782 2.49536 17.8619 2.49836 17.848 2.50648C17.8341 2.5146 17.8235 2.52733 17.818 2.54246C16.5324 5.0639 16.1611 8.67409 15.1816 11.4353C14.0607 14.5965 12.0692 16.7237 8.99248 16.5222V24.2036C8.99248 24.2036 0.776568 20.4878 0.776568 14.5131V3.31733L7.49039 2.70354H7.49298C7.50199 2.70381 7.51097 2.70231 7.5194 2.69911C7.52783 2.69591 7.53555 2.69109 7.54211 2.68491C7.54868 2.67873 7.55396 2.67131 7.55766 2.66309C7.56136 2.65487 7.56341 2.646 7.56368 2.63699C7.56395 2.62797 7.56245 2.619 7.55925 2.61057C7.55605 2.60213 7.55122 2.59442 7.54504 2.58785C7.53886 2.58129 7.53145 2.576 7.52323 2.5723C7.51501 2.5686 7.50614 2.56655 7.49712 2.56628V2.56421H0.0317383V14.5131C0.0317383 21.2357 8.99041 24.9687 8.99041 24.9687C8.99041 24.9687 17.9532 21.173 17.9532 14.5131V2.56473H17.9517Z" fill="#A4A4A4"/>
</g>
<defs>
<clipPath id="clip0_3932_276">
<rect width="92" height="25" fill="white"/>
</clipPath>
</defs>
</svg>
