<svg width="46" height="25" viewBox="0 0 46 25" fill="none" xmlns="http://www.w3.org/2000/svg">
<g clip-path="url(#clip0_3932_248)">
<path d="M44.375 13.2642C44.375 13.2642 42.1889 15.3475 41.0083 16.042C39.8278 16.7364 39.0306 16.8392 38.8917 16.7003C38.7528 16.5614 38.8917 15.5559 39.8972 14.5836L38.5778 13.5086C38.5778 13.5086 37.2583 14.9309 35.5917 15.7642C33.925 16.5975 34.1 16.6309 33.4056 16.7364C32.7111 16.842 32.3306 16.8059 31.9472 16.4947C31.5639 16.1836 31.6694 16.1836 31.6694 16.1836C31.6694 16.1836 34.7583 14.1003 36.0444 12.6086C37.3278 11.1142 38.2667 9.96975 38.2667 8.54475C38.2667 8.54475 38.0944 7.43364 36.8083 7.43364C35.5222 7.43364 33.6833 8.64753 32.7472 9.61975C31.8111 10.592 29.9361 13.2309 29.7611 15.4892C29.7611 15.4892 27.5389 16.8086 25.6639 16.8086C25.6639 16.8086 24.0333 16.7059 24.0333 16.0447C24.0333 16.0447 28.1639 12.9197 29.5194 11.3225C30.8722 9.7253 32.0528 8.19753 32.0528 6.80864C32.0528 6.80864 32.1556 5.62808 30.6306 5.62808C29.1056 5.62808 27.2639 7.01697 26.1528 8.09197C25.0417 9.16697 23.2722 11.667 22.8889 12.5031C22.5083 13.3364 22.1611 14.8642 22.125 15.2447C22.125 15.2447 19.8 16.8059 18.4806 16.8059C18.4806 16.8059 17.3361 16.7364 17.9944 15.8003C18.6528 14.8642 18.7917 14.5864 19.2778 14.0642L17.9944 12.9892C17.9944 12.9892 14.8361 16.8086 11.9194 16.8086C11.9194 16.8086 10.7056 16.842 9.59445 16.0809C9.59445 16.0809 13.0667 12.817 13.6917 11.3225C13.6917 11.3225 16.2611 10.9059 18.5167 9.48364C20.7722 8.06141 25.0444 4.79753 25.0444 1.60308C25.0444 1.60308 25.2167 0.00585938 23.3083 0.00585938C21.4 0.00585938 19.9056 1.35864 18.8306 2.29753C17.7556 3.23642 13.7611 7.99197 12.4778 9.9003C12.4778 9.9003 12.1667 10.142 10.8472 10.142C9.52778 10.142 6.09167 9.65586 6.09167 7.4003C6.09167 5.14475 9.25 3.30308 12.4806 2.81697L11.8917 1.39475C11.8917 1.39475 10.1222 1.60308 8.66389 2.29753C7.20556 2.99197 6.58056 3.37253 5.85278 4.10308C5.125 4.83364 4.15278 6.08086 4.18611 7.50586C4.21944 8.93086 4.95 10.942 9.21944 11.6031L11.1278 11.6725C11.1278 11.6725 8.87222 14.417 8.03889 15.0753C8.03889 15.0753 5.74722 13.5836 3.56111 13.5836C1.375 13.5836 0 14.9309 0 16.0086C0 17.0864 0.902778 18.3336 3.40278 18.3336C5.90278 18.3336 7.88056 17.1892 7.88056 17.1892C7.88056 17.1892 9.65 18.3336 11.6306 18.3336C13.6111 18.3336 15.1722 17.2586 16.0389 16.8059C16.0389 16.8059 16.0722 18.3336 18.0528 18.3336C20.0333 18.3336 22.4611 16.9114 22.4611 16.9114C22.4611 16.9114 22.9472 18.3336 25.2722 18.3336C27.5972 18.3336 29.925 17.1197 29.925 17.1197C29.925 17.1197 30.6889 18.3336 32.425 18.3336C34.1611 18.3336 36.0361 17.2586 36.7639 16.842C36.7639 16.842 36.6611 18.3336 38.325 18.3336L39.3667 18.1947C39.3667 18.1947 35.5472 22.7086 35.2 24.3753L36.9361 24.8614C36.9361 24.8614 38.3944 21.7364 40.5806 19.4114C42.7667 17.0864 45.1972 14.6892 45.1972 14.6892L45.6472 14.2725L44.3639 13.267L44.375 13.2642ZM18.8556 4.8253C20.4167 3.22808 21.3889 2.08364 22.675 1.8753C22.675 1.8753 23.925 1.59753 21.8417 4.40864C21.8417 4.40864 20.5917 6.0753 18.9944 7.18642C17.3972 8.29753 16.4944 8.81697 16.1139 8.95586C15.7333 9.09475 15.2472 9.26697 15.2472 9.26697C15.2472 9.26697 17.2944 6.41975 18.8583 4.82253L18.8556 4.8253ZM3.41944 16.842C1.58056 16.842 1.78889 16.0086 1.78889 16.0086C1.78889 16.0086 1.58056 15.1225 3.40278 15.1225C5.225 15.1225 6.35278 16.0947 6.35278 16.0947C6.35278 16.0947 5.25833 16.842 3.41944 16.842ZM25.3472 11.5281C26.1806 10.5225 27.1861 9.41142 27.8111 8.81975C28.4361 8.22808 29.4417 7.32808 29.8944 7.29197C30.3472 7.25586 30.1722 7.67253 29.7917 8.29753C29.4111 8.92253 28.3 10.3447 27.4667 11.1086C26.6333 11.8725 25.5917 12.9142 25.0722 13.2975C24.5528 13.6809 23.9972 14.0947 23.9972 14.0947C23.9972 14.0947 24.5167 12.5336 25.35 11.5253L25.3472 11.5281ZM33.5417 11.1809C35 9.65308 35.5194 9.16697 35.9028 9.13364C36.2861 9.1003 36.6667 9.06419 35.9722 10.1059C35.2778 11.1475 34.1667 12.4336 33.3333 13.0586C32.5 13.6836 31.5278 14.4809 31.5278 14.4809C31.5278 14.4809 32.0833 12.7114 33.5417 11.1809Z" fill="#A4A4A4"/>
<path d="M19.2 11.5614C19.2 12.1948 19.7138 12.7087 20.3444 12.7087C20.9749 12.7087 21.4888 12.1948 21.4888 11.5614C21.4888 10.9281 20.9749 10.417 20.3444 10.417C19.7138 10.417 19.2 10.9309 19.2 11.5614Z" fill="#A4A4A4"/>
</g>
<defs>
<clipPath id="clip0_3932_248">
<rect width="46" height="25" fill="white"/>
</clipPath>
</defs>
</svg>
