<svg width="93" height="25" viewBox="0 0 93 25" fill="none" xmlns="http://www.w3.org/2000/svg">
<path d="M13.7062 8.37761C12.5713 12.0957 11.4185 15.8455 10.2477 19.6271C10.1764 19.8566 10.0638 20.108 9.91 20.3811C9.73872 20.6844 9.51795 20.8699 9.24769 20.9375C8.76231 21.0582 8.11 21.0313 7.76384 20.6109C7.68436 20.514 7.5982 20.3765 7.50538 20.1981C7.38282 19.9629 7.24487 19.594 7.09154 19.0913C4.91615 11.9688 3.82513 8.39862 3.81846 8.38068C3.75231 8.20544 3.71769 8.21082 3.71461 8.39682C3.71359 8.46036 3.70205 8.58488 3.68 8.77037C3.19948 12.8148 2.71872 16.8749 2.23769 20.9506C2.23636 20.9619 2.23092 20.9723 2.22241 20.9798C2.21389 20.9873 2.2029 20.9914 2.19154 20.9913H0.0584597C0.0292289 20.9913 0.0164084 20.9767 0.0199981 20.9475C0.611793 16.2984 1.20128 11.6478 1.78846 6.99564C1.88077 6.26622 2.01308 5.73665 2.59692 5.31391C2.92769 5.07461 3.34102 4.97213 3.83692 5.00646C4.83615 5.07641 5.26 5.865 5.51769 6.7174C6.58846 10.2628 7.65795 13.8051 8.72615 17.3443C8.73179 17.3632 8.74051 17.3809 8.75231 17.3973C8.76461 17.4142 8.77359 17.4127 8.77923 17.3927C9.82846 13.9093 10.9118 10.3202 12.0292 6.62516C12.1174 6.33411 12.2464 6.0505 12.4162 5.77431C12.8008 5.14712 13.3685 4.96188 14.0623 5.008C14.7062 5.05104 15.2254 5.43996 15.5085 6.02411C15.5982 6.20909 15.6715 6.52755 15.7285 6.9795C16.311 11.5917 16.901 16.2495 17.4985 20.9529C17.499 20.9578 17.4985 20.9627 17.4971 20.9674C17.4956 20.972 17.4932 20.9763 17.49 20.9799C17.4868 20.9836 17.4829 20.9865 17.4785 20.9884C17.4741 20.9904 17.4694 20.9914 17.4646 20.9913H15.3269C15.2997 20.9913 15.2846 20.978 15.2815 20.9514L13.7954 8.38606C13.7785 8.24105 13.7487 8.23823 13.7062 8.37761Z" fill="#A4A4A4"/>
<path d="M83.2331 8.00381L83.2339 20.8407C83.2339 20.8464 83.2317 20.8519 83.2278 20.8559C83.2239 20.86 83.2186 20.8622 83.2131 20.8622H81.1377C81.1318 20.8622 81.1261 20.8599 81.122 20.8557C81.1178 20.8515 81.1154 20.8459 81.1154 20.8399C81.1154 16.1915 81.1159 11.5412 81.117 6.88909C81.117 5.9904 81.5085 5.24316 82.4539 5.05634C83.2685 4.8949 83.9831 5.06634 84.4985 5.75362C84.7098 6.03601 84.8795 6.30893 85.0077 6.57236C86.7031 10.0574 88.4985 13.7616 90.3939 17.6849C90.4385 17.7777 90.4608 17.7728 90.4608 17.6703V5.17858C90.4608 5.15244 90.4739 5.13937 90.5 5.13937L92.54 5.13706C92.5677 5.13706 92.5816 5.1509 92.5816 5.17858C92.5775 9.86295 92.5785 14.5742 92.5846 19.3124C92.5852 19.6532 92.5495 19.9164 92.4777 20.1019C92.16 20.9176 91.2962 21.0829 90.4816 20.9668C89.7254 20.8592 89.2793 20.328 88.9685 19.6891C87.0787 15.8094 85.1895 11.9291 83.3008 8.0484C83.2905 8.02636 83.2764 8.0074 83.2585 7.99151C83.2416 7.97613 83.2331 7.98023 83.2331 8.00381Z" fill="#A4A4A4"/>
<path d="M21.19 13.7936C21.3962 16.6952 23.8946 18.9383 26.7285 18.9743C27.3541 18.9826 28.0244 18.9844 28.7393 18.9797C28.7445 18.9796 28.7497 18.9806 28.7545 18.9826C28.7594 18.9845 28.7638 18.9874 28.7675 18.9912C28.7712 18.9949 28.7742 18.9993 28.7762 19.0042C28.7782 19.0091 28.7793 19.0143 28.7793 19.0196L28.7785 20.9554C28.7785 20.984 28.7644 20.9984 28.7362 20.9984C28.1264 21.001 27.53 21.0005 26.947 20.9968C22.9254 20.971 19.5408 18.1836 19.0362 14.0853C18.4331 9.19243 21.8846 5.15753 26.7277 5.01597C27.3493 4.99772 28.0254 4.99511 28.7562 5.00815C28.7623 5.00815 28.7682 5.01062 28.7725 5.01502C28.7768 5.01942 28.7793 5.02539 28.7793 5.03161V6.98376C28.7793 6.98937 28.7781 6.99492 28.776 7.0001C28.7738 7.00528 28.7706 7.00997 28.7666 7.0139C28.7626 7.01783 28.7578 7.02093 28.7526 7.023C28.7474 7.02508 28.7418 7.02609 28.7362 7.02599C28.1388 7.01087 27.5413 7.01687 26.9439 7.04398C24.7723 7.14096 22.84 8.21323 21.7177 10.1138C21.447 10.5726 21.2688 11.0823 21.1831 11.6428C21.1749 11.6954 21.1972 11.7218 21.25 11.7218L28.7331 11.7233C28.746 11.7233 28.7583 11.7284 28.7674 11.7375C28.7765 11.7466 28.7816 11.759 28.7816 11.7718L28.7785 13.6903C28.7785 13.6973 28.7771 13.7042 28.7745 13.7107C28.7719 13.7171 28.768 13.723 28.7632 13.7279C28.7583 13.7329 28.7525 13.7368 28.7462 13.7395C28.7399 13.7422 28.7331 13.7435 28.7262 13.7435H21.2354C21.2026 13.7435 21.1875 13.7602 21.19 13.7936Z" fill="#A4A4A4"/>
<path d="M34.0962 7.0749V20.9512C34.0962 20.9617 34.092 20.9719 34.0847 20.9794C34.0773 20.9868 34.0673 20.991 34.0569 20.991L32 20.9895C31.9744 20.9895 31.9615 20.9764 31.9615 20.9504V5.04479C31.9615 5.02029 31.9736 5.00778 31.9977 5.00726C33.9695 4.99475 35.418 4.9984 36.3431 5.01821C37.3257 5.03957 38.3049 5.2892 39.2808 5.76709C42.2423 7.21718 43.8954 10.3972 43.6246 13.7156C43.3285 17.3404 40.6915 20.3586 37.1154 20.9003C36.5108 20.9921 35.8144 21.0205 35.0262 20.9856C34.9949 20.9845 34.9792 20.9681 34.9792 20.9363L34.9762 19.018C34.9762 18.9878 34.9913 18.9726 35.0216 18.9726C35.6531 18.9773 36.3462 19.0008 36.94 18.8937C38.2051 18.6659 39.2572 18.0307 40.0962 16.9879C41.3323 15.4518 41.7016 13.3552 41.2608 11.4345C40.6762 8.88849 38.4746 7.22108 35.9715 7.05458C35.4121 7.01706 34.8036 7.00638 34.1462 7.02253C34.1128 7.02357 34.0962 7.04103 34.0962 7.0749Z" fill="#A4A4A4"/>
<path d="M47.9684 5H45.893C45.8765 5 45.863 5.01366 45.863 5.03051V20.9695C45.863 20.9863 45.8765 21 45.893 21H47.9684C47.985 21 47.9984 20.9863 47.9984 20.9695V5.03051C47.9984 5.01366 47.985 5 47.9684 5Z" fill="#A4A4A4"/>
<path d="M56.5339 14.658C55.4577 14.0427 54.2408 13.5368 53.1285 12.9136C51.3423 11.912 50.0646 10.5484 50.4069 8.29422C50.6769 6.51463 51.9408 5.36212 53.6685 5.08846C54.0552 5.02747 54.4639 4.99802 54.8946 5.0001C56.5213 5.0074 58.1059 5.00792 59.6485 5.00167C59.6788 5.00167 59.6939 5.01678 59.6939 5.04702L59.6923 6.97751C59.6923 7.00618 59.6782 7.02052 59.65 7.02052C57.9387 7.02208 56.2472 7.02182 54.5754 7.01973C53.8262 7.01895 53.1146 7.18315 52.7308 7.86496C52.5508 8.18449 52.4687 8.5512 52.4846 8.96508C52.5246 10.0011 53.63 10.7009 54.4293 11.1051C55.1503 11.47 55.877 11.8276 56.6093 12.1779C58.5316 13.0974 60.4493 14.4368 60.3846 16.8466C60.3593 17.7973 60.1269 18.7129 59.5646 19.455C58.67 20.6333 57.2969 21.0031 55.8731 21C54.1141 20.9953 52.2464 20.9945 50.27 20.9976C50.2602 20.9976 50.2508 20.9937 50.2439 20.9866C50.237 20.9796 50.2331 20.9701 50.2331 20.9601L50.2316 19.003C50.2316 18.9962 50.2343 18.9896 50.2392 18.9848C50.2441 18.9799 50.2508 18.9772 50.2577 18.9772C52.0875 18.9804 53.8862 18.9793 55.6539 18.9741C57.0093 18.9702 58.2208 18.5957 58.2554 16.985C58.28 15.8739 57.4239 15.1678 56.5339 14.658Z" fill="#A4A4A4"/>
<path d="M72.5234 5.58317C71.408 8.46729 69.6651 11.1149 67.6693 13.4967C66.3527 15.0682 64.9431 16.555 63.4405 17.9569C63.4363 17.961 63.4312 17.9641 63.4256 17.9661C63.4201 17.968 63.4141 17.9689 63.4082 17.9685C63.4023 17.9681 63.3965 17.9664 63.3912 17.9637C63.3858 17.961 63.3811 17.9572 63.3773 17.9526C61.9823 16.2313 61.4404 13.9746 61.7494 11.8078C62.1404 9.0717 64.032 6.63534 66.6186 5.59826C68.5342 4.8307 70.4909 4.80051 72.4889 5.50771C72.5258 5.52112 72.5373 5.54628 72.5234 5.58317Z" fill="#A4A4A4"/>
<path d="M75.7072 7.75518C77.0267 9.28456 77.7296 11.238 77.6613 13.246C77.496 18.1072 73.1637 21.6526 68.3794 20.8986C66.8538 20.6586 65.4833 19.9996 64.2677 18.9215C64.2617 18.9162 64.2571 18.9095 64.2541 18.9021C64.2511 18.8946 64.2498 18.8866 64.2505 18.8785C64.2511 18.8705 64.2536 18.8626 64.2577 18.8556C64.2618 18.8486 64.2674 18.8427 64.2742 18.8381C66.4705 17.3926 68.5023 15.8271 70.3694 14.1415C72.4191 12.2909 74.3057 10.1556 75.6612 7.7595C75.6634 7.75552 75.6665 7.75215 75.6703 7.74967C75.6741 7.74718 75.6785 7.74566 75.683 7.74524C75.6876 7.74482 75.6921 7.7455 75.6963 7.74723C75.7005 7.74896 75.7043 7.75169 75.7072 7.75518Z" fill="#A4A4A4"/>
</svg>
