<svg width="119" height="25" viewBox="0 0 119 25" fill="none" xmlns="http://www.w3.org/2000/svg">
<path d="M11.82 12.0443L11.772 12.1683C12.572 12.5203 14.368 13.9163 14.368 16.7283C14.368 19.3763 12.136 22.0443 8.62803 22.0443C4.26403 22.0443 2.76003 19.4923 2.76003 17.1483C2.76003 14.1443 4.86003 12.1443 4.86003 9.40827C4.84859 8.44062 4.50925 7.50546 3.89748 6.75564C3.28571 6.00583 2.4377 5.4857 1.49203 5.28027L1.42003 5.40427C1.76297 5.73704 2.03508 6.13571 2.21999 6.57634C2.4049 7.01696 2.4988 7.49043 2.49603 7.96827C2.49603 10.9243 0.00402832 13.0243 0.00402832 16.4163C0.00402832 19.5403 2.18803 22.7243 8.51203 22.7243C14.148 22.7243 17.12 19.9643 17.12 17.0283C17.116 14.5083 15.312 12.3763 11.82 12.0443Z" fill="#A4A4A4"/>
<path d="M36.58 18.221L29.088 8.56095V17.269L30.616 17.633V18.033H27.132V17.633L28.38 17.269V7.78095C28.0763 7.49782 27.7106 7.28962 27.312 7.17295C27.16 7.14095 26.956 7.10495 26.956 7.10495V6.70495H29.912L36.312 15.025V7.47695L34.784 7.10895V6.70895H38.268V7.10895L37.02 7.47695V16.113C37.02 16.913 37.076 18.077 37.088 18.225L36.58 18.221ZM52.244 12.069C52.244 16.069 49.444 18.389 46.384 18.389C43.324 18.389 40.512 16.037 40.512 12.381C40.512 8.72495 43.312 6.34895 46.356 6.34895C47.1223 6.32366 47.8857 6.45319 48.6007 6.72981C49.3157 7.00642 49.9676 7.42443 50.5173 7.95883C51.067 8.49322 51.5033 9.13301 51.7999 9.83991C52.0966 10.5468 52.2477 11.3063 52.244 12.073V12.069ZM50.296 12.669C50.296 9.72895 48.536 6.87695 46.144 6.87695C43.6 6.87695 42.452 9.33696 42.452 11.969C42.452 14.601 43.904 17.865 46.636 17.865C49.204 17.865 50.296 15.265 50.296 12.669ZM54.664 7.46896L53.464 7.10095V6.70095H58.06V7.10095L56.62 7.46896L59.792 16.117L62.964 7.46896L61.524 7.10095V6.70095H64.924V7.10095L63.724 7.46896L59.752 18.249H58.736L54.664 7.46896ZM81.824 12.249H81.096V7.29695C83.496 7.29695 84.924 7.84895 84.924 9.80895C84.912 11.265 83.664 12.249 81.824 12.249ZM102.388 17.633L103.988 17.269V7.47295L102.388 7.10495V6.70495H107.376V7.10495L105.776 7.47295V17.269L107.376 17.633V18.033H102.388V17.633ZM110.432 14.921H110.748L111.808 17.361C112.438 17.6775 113.131 17.8496 113.836 17.865C115.212 17.865 116.468 17.065 116.468 15.633C116.468 14.545 115.764 13.897 114.624 13.301L113.496 12.717C112.148 12.017 110.8 11.025 110.8 9.42895C110.8 7.69295 112 6.35295 114.568 6.35295C115.47 6.36212 116.366 6.50915 117.224 6.78895L117.492 9.41295H117.152L116.172 7.30895C115.665 7.02562 115.093 6.87689 114.512 6.87695C113.212 6.87695 112.328 7.67695 112.328 8.78495C112.328 9.78895 112.996 10.421 114.14 11.013L115.476 11.709C117.3 12.653 118.164 13.529 118.164 15.149C118.164 17.149 116.288 18.393 113.956 18.393C112.858 18.4097 111.765 18.2462 110.72 17.909L110.432 14.921ZM64.192 17.633L65.476 17.269L69.44 6.69695L70.764 6.35695L74.856 17.265L76.14 17.633V18.033H71.284V17.633L72.928 17.265L71.768 14.129H67.408L66.256 17.265L67.9 17.629V18.029H64.192V17.633ZM67.712 13.293H71.484L69.612 8.23695L67.712 13.293ZM84.112 12.493C84.512 12.393 86.756 11.821 86.756 9.69295C86.756 7.98495 85.448 6.66095 82.224 6.66095C80.224 6.66095 78.224 6.70495 77.972 6.71295V7.11295L79.288 7.48095V17.265L77.972 17.633V18.033H82.628V17.633L81.1 17.265V12.841H82.416L85.7801 18.041H88.76V17.641L87.252 17.241L84.112 12.493ZM93.944 7.29295V17.269L92.344 17.633V18.033H97.332V17.633L95.732 17.269V7.29695H98.424L99.312 9.20895H99.656L99.4 6.71695H90.276L90.02 9.20895H90.364L91.244 7.31695L93.944 7.29295ZM8.58804 18.493L10.188 3.37695H6.86804L8.46804 18.493H8.58804Z" fill="#A4A4A4"/>
</svg>
