<svg width="66" height="25" viewBox="0 0 66 25" fill="none" xmlns="http://www.w3.org/2000/svg">
<g clip-path="url(#clip0_3932_270)">
<path d="M1.94245 10.0035C2.6629 7.36943 5.66354 6.74255 8.4262 6.66511C10.6973 6.60145 13.2295 6.90175 13.2295 6.90175L12.0397 11.2519C12.0397 11.2519 9.50748 10.9516 7.23638 11.0152C4.47374 11.0927 1.47308 11.7195 0.752625 14.3536L1.94245 10.0035Z" fill="#A4A4A4"/>
<path d="M42.219 3C38.2223 3.00003 37.1985 6.94534 36.6255 9.08213L32.3563 25H34.847L38.6321 10.8857H41.2191L39.4969 17.3082H41.9877L44.053 9.60612H38.9755C39.2356 8.63535 39.5131 7.60116 39.7392 6.75787C40.1569 5.20051 40.839 4.06956 41.8311 4.10759C42.9275 4.14963 42.3695 4.88399 42.2194 5.44389C42.0117 6.21851 42.5725 6.99741 43.555 6.99741C45.6893 6.99741 46.2156 3 42.219 3ZM28.0899 5.78529V5.78543L25 17.3082H27.5966L28.7408 13.0412H30.9963C33.4851 13.0412 35.1368 11.6401 35.5834 9.69261C36.0004 7.87422 34.9591 5.78529 32.1703 5.78529C30.8101 5.78532 29.4502 5.78529 28.0899 5.78529ZM30.323 7.14124H31.3214C32.3666 7.14124 33.1959 7.99468 32.9957 9.47994C32.81 10.8567 31.3443 11.682 30.0663 11.682H29.1053L30.323 7.14124ZM54.9463 9.37287C52.763 9.37287 51.1881 11.2887 50.8101 13.2033C50.4469 15.0432 51.4814 17.4881 54.3292 17.4881C56.3533 17.4881 57.3713 16.579 57.3713 16.579L56.9054 15.4061C56.9054 15.4061 56.0545 16.1125 54.8688 16.1125C53.6831 16.1125 52.9392 15.1579 53.1038 13.6365H57.9457C58.2918 12.7407 58.4814 9.37287 54.9463 9.37287ZM64.5977 9.47646C62.9738 9.47646 62.0164 11.1869 62.0164 11.1869L62.4402 9.60626H59.9495L57.8841 17.3082H60.3748C60.3748 17.3082 60.9746 15.0579 61.2799 13.9345C61.7511 12.1784 62.7122 11.0787 63.1742 11.0337C63.7082 10.9817 63.6571 12.2941 64.6985 12.2941C66.2782 12.2941 66.619 9.47646 64.5979 9.47646H64.5977ZM44.9915 9.60626L44.6483 10.886H47.8054L42.8421 17.3082H49.851L50.1941 16.0284H46.6326L51.5958 9.60626H44.9915ZM54.937 10.6446V10.6447C56.2912 10.6447 55.9831 12.4685 55.9831 12.4685L53.2702 12.4621C53.2702 12.4621 53.7201 10.6446 54.937 10.6446Z" fill="#A4A4A4"/>
<path d="M19.1831 18.153C11.0549 17.6462 1.60909 13.4535 1.94252 10.0029L0.821058 14.1032C0.48088 17.6237 9.24316 21.8035 17.9933 22.5032L19.1831 18.153Z" fill="#A4A4A4"/>
<path d="M22.137 12.5005C21.4165 15.1345 18.4159 15.7614 15.6532 15.8389C13.3821 15.9025 10.8499 15.6022 10.8499 15.6022L12.0397 11.2521C12.0397 11.2521 14.572 11.5524 16.8431 11.4887C19.6057 11.4113 22.6064 10.7844 23.3268 8.15039L22.137 12.5005Z" fill="#A4A4A4"/>
<path d="M4.8963 4.35011C13.0246 4.85698 22.4704 9.04963 22.1369 12.5002L23.2584 8.4C23.5986 4.87945 14.8363 0.699619 6.08612 0L4.8963 4.35011Z" fill="#A4A4A4"/>
</g>
<defs>
<clipPath id="clip0_3932_270">
<rect width="66" height="25" fill="white"/>
</clipPath>
</defs>
</svg>
