<svg width="48" height="25" viewBox="0 0 48 25" fill="none" xmlns="http://www.w3.org/2000/svg">
<g clip-path="url(#clip0_3932_254)">
<path d="M32.5256 9.61035C32.2267 9.39055 31.7519 9.24988 31.2947 9.25867C30.7936 9.26746 30.3188 9.42572 29.9847 9.68947V6.54199H28.4286V16.8109H29.9847V11.4478C29.9847 11.0786 30.3013 10.6654 30.8815 10.639C31.1365 10.6302 31.4969 10.7445 31.6816 11.017C31.875 11.2984 31.8662 11.6852 31.8662 12.0984L31.8574 16.8109H33.4136V12.0457C33.4136 10.639 33.2377 10.1379 32.5256 9.61035Z" fill="#A4A4A4"/>
<path d="M19.8654 13.136C19.8654 14.1383 19.8303 14.4196 19.8215 14.5075C19.7687 15.0702 19.5313 15.6593 18.8807 15.6593C18.2389 15.6593 17.9752 15.0262 17.9488 14.4811C17.94 14.4811 17.9048 14.1383 17.9048 13.136C17.9048 12.1337 17.94 11.7117 17.9488 11.7117C17.9488 11.1402 18.2477 10.5776 18.8807 10.5776C19.5225 10.5776 19.8127 11.1402 19.8215 11.7029C19.8215 11.7117 19.8654 12.1337 19.8654 13.136ZM21.3688 11.9227C21.149 9.73356 19.9006 9.25879 18.8807 9.25879C17.4301 9.25879 16.5509 10.1819 16.3926 11.9227C16.3751 12.0634 16.3575 12.3184 16.3487 13.136C16.3399 13.7338 16.3839 14.2262 16.3926 14.3493C16.4894 15.9758 17.4213 16.9692 18.8807 16.9692C20.3402 16.9692 21.2721 15.9582 21.3776 14.3493C21.3864 14.235 21.4128 13.7338 21.4128 13.136C21.4128 12.8634 21.3952 12.1337 21.3688 11.9227Z" fill="#A4A4A4"/>
<path d="M36.016 12.2128C36.0248 11.87 36.0248 11.7996 36.0336 11.7029C36.0775 11.0875 36.3501 10.5776 36.9831 10.5776C37.7304 10.5688 37.9062 11.2985 37.9326 11.7029C37.9502 11.9227 37.959 12.0634 37.959 12.2128H36.016ZM37.9414 14.2701C37.9414 14.2701 37.9414 14.3844 37.9238 14.5251C37.8799 14.8856 37.7392 15.6593 36.9831 15.6593C36.3325 15.6593 36.0863 15.0702 36.0424 14.4899C36.0336 14.3229 36.0072 14.1383 36.0072 13.5053H39.48C39.48 13.5053 39.48 12.9865 39.4712 12.6788C39.4712 12.5557 39.4624 12.3535 39.436 11.9227C39.3833 11.2633 39.1371 10.5424 38.759 10.0852C38.3282 9.54013 37.7128 9.25879 36.9831 9.25879C35.5764 9.25879 34.6972 10.1731 34.5302 11.9227C34.5126 12.081 34.4862 12.3008 34.4862 13.136C34.4862 13.7338 34.5214 14.235 34.5302 14.3493C34.6181 15.9494 35.5676 16.9692 36.9831 16.9692C38.3898 16.9692 39.3305 15.9758 39.436 14.2701H37.9414Z" fill="#A4A4A4"/>
<path d="M11.4252 1.30216H36.7282L46.3992 12.6261L36.7282 23.7917H11.4252L1.71024 12.5909L11.4252 1.30216ZM37.3348 0.0449219H10.8098L0.048584 12.5469L10.8186 24.9698H37.3348L48.0609 12.5909L37.3348 0.0449219Z" fill="#A4A4A4"/>
<path d="M11.7417 7.93987H12.4714C13.2715 7.93987 13.7111 8.36188 13.7287 9.11798C13.7287 9.17952 13.7374 9.24107 13.7374 9.35536C13.7374 9.49603 13.7375 9.53998 13.7287 9.60153C13.6847 10.0499 13.4825 10.8324 12.5505 10.8324H11.7417V7.93987ZM15.4255 16.169L15.2672 13.6546C15.1969 12.5292 14.9068 11.861 14.3177 11.5181C14.7397 11.2632 15.2848 10.639 15.276 9.32898C15.276 7.34202 14.0364 6.63867 12.5769 6.62109H10.2031V16.8108H11.7329L11.7417 12.1512H12.5945C13.0869 12.1512 13.6407 12.582 13.7287 13.7952L13.8869 16.1778C13.9045 16.5207 13.966 16.8108 13.966 16.8108H15.5046C15.5046 16.8108 15.4343 16.5295 15.4255 16.169Z" fill="#A4A4A4"/>
<path d="M25.9141 14.1998C25.9141 14.3141 25.9053 14.4108 25.8965 14.4811C25.8526 15.0526 25.6592 15.6593 24.9558 15.6593C24.314 15.6593 24.0591 14.9999 24.0063 14.5163C23.9799 14.2262 23.9887 13.9976 23.9799 13.136C23.9711 12.1337 24.0063 11.87 24.0239 11.7117C24.0766 11.0699 24.3228 10.5776 24.9558 10.5776C25.6152 10.5688 25.8878 11.1402 25.8965 11.7029C25.8965 11.7117 25.9141 11.8436 25.9229 12.1425H27.4615C27.4615 12.037 27.4527 11.9491 27.4527 11.9051C27.2769 9.77751 25.9757 9.25879 24.9558 9.25879C23.5052 9.25879 22.626 10.1819 22.4677 11.9227C22.4501 12.0634 22.4326 12.3184 22.4238 13.136C22.415 13.7338 22.4589 14.2262 22.4677 14.3493C22.5644 15.9758 23.4964 16.9692 24.9558 16.9692C26.468 16.978 27.3032 16.0549 27.4527 14.3493C27.4527 14.2877 27.4615 14.2438 27.4615 14.1998H25.9141Z" fill="#A4A4A4"/>
</g>
<defs>
<clipPath id="clip0_3932_254">
<rect width="48" height="25" fill="white"/>
</clipPath>
</defs>
</svg>
