<svg width="50" height="50" viewBox="0 0 50 50" fill="none" xmlns="http://www.w3.org/2000/svg">
<path d="M4.78601 26.2521L4.06134 27.6802C3.90362 27.9871 4.02724 28.3665 4.33842 28.5242L8.52872 30.647C8.8399 30.8048 9.21929 30.6769 9.37275 30.3657L15.038 18.8733C15.1914 18.5621 15.0635 18.1827 14.7481 18.0335L10.6601 16.0556C10.3532 15.9064 9.98232 16.03 9.82886 16.3369L5.96253 23.9417L4.78601 26.2521Z" stroke="#3F3F3F" stroke-width="1.4" stroke-linecap="round" stroke-linejoin="round"/>
<path d="M44.2464 24.2234L40.9982 16.3372C40.8703 16.0218 40.5122 15.8683 40.1925 15.992L35.9596 17.6374C35.6356 17.7653 35.4779 18.1276 35.6058 18.4516L40.3375 30.3575C40.4653 30.6815 40.8362 30.8392 41.1559 30.707L45.5039 28.9252C45.8236 28.7931 45.9771 28.4265 45.845 28.1067L45.2354 26.6233L44.2464 24.2276V24.2234Z" stroke="#3F3F3F" stroke-width="1.4" stroke-linecap="round" stroke-linejoin="round"/>
<path d="M14.5436 19.8796L16.8753 21.0177L19.8124 19.2402C20.5498 18.7926 21.4152 18.6604 22.2251 18.8352" stroke="#3F3F3F" stroke-width="1.4" stroke-linecap="round" stroke-linejoin="round"/>
<path d="M35.6357 19.3635L32.4258 20.28L26.7179 18.9244C25.5627 18.6516 24.3478 19.0139 23.5379 19.8835L20.1703 23.4898C19.8293 23.8522 19.8549 24.4276 20.23 24.7601C21.3895 25.7875 23.1116 25.8514 24.3436 24.9136L27.0504 22.8547" stroke="#3F3F3F" stroke-width="1.4" stroke-linecap="round" stroke-linejoin="round"/>
<path d="M28.7344 23.1533L36.5736 29.8714C37.3878 30.5705 37.537 31.7769 36.9189 32.6508C36.2241 33.6312 34.8472 33.8188 33.9136 33.0643L30.4949 30.2977" stroke="#3F3F3F" stroke-width="1.4" stroke-linecap="round" stroke-linejoin="round"/>
<path d="M27.626 32.5737L31.5264 35.4127C32.2298 35.9243 33.2017 35.8092 33.7686 35.1485C34.3782 34.4366 34.2802 33.3624 33.5512 32.7741L31.2536 30.9155" stroke="#3F3F3F" stroke-width="1.4" stroke-linecap="round" stroke-linejoin="round"/>
<path d="M25.1451 34.4623L28.3039 37.0242C29.0029 37.5912 30.0388 37.4718 30.5844 36.7514C31.1301 36.0353 30.9809 35.0122 30.2562 34.4836L28.2484 33.0215" stroke="#3F3F3F" stroke-width="1.4" stroke-linecap="round" stroke-linejoin="round"/>
<path d="M24.0409 38.0646L25.145 38.7296C25.8483 39.1516 26.7563 38.9981 27.2806 38.3672C27.8731 37.6553 27.7708 36.5939 27.0504 36.0099L25.8696 35.0508" stroke="#3F3F3F" stroke-width="1.4" stroke-linecap="round" stroke-linejoin="round"/>
<path d="M9.79919 29.5002L11.743 30.6725" stroke="#3F3F3F" stroke-width="1.4" stroke-linecap="round" stroke-linejoin="round"/>
<path d="M39.9923 29.5002L38.5387 29.9052" stroke="#3F3F3F" stroke-width="1.4" stroke-linecap="round" stroke-linejoin="round"/>
<path d="M22.323 35.3914L22.3145 35.3829C21.6878 34.8714 20.7628 34.995 20.2897 35.6515L19.4797 36.7811C19.0108 37.4333 19.1856 38.3498 19.8634 38.7803C20.4857 39.1768 21.3127 39.0233 21.7518 38.4265L22.5745 37.3054C23.0136 36.7044 22.907 35.8603 22.3273 35.3914H22.323Z" stroke="#3F3F3F" stroke-width="1.4" stroke-linecap="round" stroke-linejoin="round"/>
<path d="M14.9868 35.5195C15.6049 35.9671 16.4702 35.8392 16.9349 35.2296L17.7235 34.1895C18.218 33.533 18.0517 32.5952 17.3611 32.1562L17.3441 32.1434C16.7175 31.7427 15.8905 31.9004 15.4514 32.4972L14.6799 33.5501C14.2195 34.181 14.3602 35.0634 14.991 35.5195H14.9868Z" stroke="#3F3F3F" stroke-width="1.4" stroke-linecap="round" stroke-linejoin="round"/>
<path d="M12.9449 33.7291L12.9534 33.7376C13.5332 34.1468 14.3388 34.0189 14.7566 33.4435L15.2809 32.7273C15.7285 32.1135 15.5622 31.2481 14.9143 30.8474C14.3388 30.4936 13.5886 30.6343 13.1836 31.1714L12.6508 31.879C12.2074 32.4673 12.3396 33.3028 12.9406 33.7291H12.9449Z" stroke="#3F3F3F" stroke-width="1.4" stroke-linecap="round" stroke-linejoin="round"/>
<path d="M20.0553 33.4902C19.4073 33 18.4823 33.1321 18.0006 33.7886L16.7942 35.434C16.3253 36.0735 16.4404 36.9644 17.0543 37.4631C17.7235 38.0088 18.7168 37.8681 19.2112 37.1562L20.375 35.4809C20.8183 34.8373 20.6819 33.9591 20.0595 33.4902H20.0553Z" stroke="#3F3F3F" stroke-width="1.4" stroke-linecap="round" stroke-linejoin="round"/>
<path d="M24.9447 11V14.8962" stroke="#3F3F3F" stroke-width="1.4" stroke-linecap="round" stroke-linejoin="round"/>
<path d="M18.8831 12.1426L21.6368 14.8963" stroke="#3F3F3F" stroke-width="1.4" stroke-linecap="round" stroke-linejoin="round"/>
<path d="M31.0064 12.1426L28.2527 14.8963" stroke="#3F3F3F" stroke-width="1.4" stroke-linecap="round" stroke-linejoin="round"/>
</svg>
