<svg width="50" height="50" viewBox="0 0 50 50" fill="none" xmlns="http://www.w3.org/2000/svg">
<path d="M14.7046 36.8634L25.2776 40.7773C26.1652 41.0974 27.1449 41.0732 28.013 40.6997L34.352 37.9837C34.7594 37.8091 35.1231 37.5569 35.4335 37.2417L39.5124 33.0464C40.075 32.4693 39.7209 31.4993 38.9158 31.4217C36.9031 31.2228 34.9097 31.9503 33.4935 33.4005L32.4217 34.5014L28.8472 35.1853" stroke="#3F3F3F" stroke-width="1.4" stroke-linecap="round" stroke-linejoin="round"/>
<path d="M14.7046 28.7347C14.7046 28.7347 16.9986 27.1197 19.671 27.8375C22.3434 28.5601 24.6326 31.5235 24.6326 31.5235L27.8869 32.6923C28.8181 33.027 29.2837 34.0649 28.92 34.9864C28.5805 35.8303 27.6493 36.2765 26.7811 36.0049L21.2424 34.2783" stroke="#3F3F3F" stroke-width="1.4" stroke-linecap="round" stroke-linejoin="round"/>
<path d="M13.7491 27.2893H10.6159C10.2758 27.2893 10 27.5651 10 27.9053V38.2455C10 38.5857 10.2758 38.8614 10.6159 38.8614H13.7491C14.0892 38.8614 14.365 38.5857 14.365 38.2455V27.9053C14.365 27.5651 14.0892 27.2893 13.7491 27.2893Z" stroke="#3F3F3F" stroke-width="1.4" stroke-linecap="round" stroke-linejoin="round"/>
<path d="M32.3441 26.3638L28.0955 24.1716L23.8808 26.4269C23.4589 26.6548 22.9545 26.2959 23.0321 25.8206L23.8081 21.1016L20.3597 17.789C20.0105 17.4544 20.1996 16.8675 20.6749 16.7948L25.3989 16.0721L27.4844 11.7702C27.6929 11.3385 28.3089 11.3337 28.5271 11.7605L30.6757 16.0333L35.4093 16.6881C35.8846 16.756 36.0786 17.338 35.7391 17.6775L32.3392 21.0385L33.1831 25.743C33.2656 26.2183 32.7709 26.5821 32.3441 26.359V26.3638Z" stroke="#3F3F3F" stroke-width="1.4" stroke-linecap="round" stroke-linejoin="round"/>
<path d="M34.7157 10L33.6826 11.4211" stroke="#3F3F3F" stroke-width="1.4" stroke-linecap="round" stroke-linejoin="round"/>
<path d="M38.8332 22.6877L37.1648 22.1445" stroke="#3F3F3F" stroke-width="1.4" stroke-linecap="round" stroke-linejoin="round"/>
<path d="M17.2606 22.6828L18.929 22.1396" stroke="#3F3F3F" stroke-width="1.4" stroke-linecap="round" stroke-linejoin="round"/>
<path d="M21.3831 10L22.4113 11.4211" stroke="#3F3F3F" stroke-width="1.4" stroke-linecap="round" stroke-linejoin="round"/>
</svg>
