<svg width="50" height="50" viewBox="0 0 50 50" fill="none" xmlns="http://www.w3.org/2000/svg">
<path d="M25.9398 14.4497L21.1747 19.2148L19.1299 17.1701L17.0851 19.2148L21.1747 23.2998L27.9845 16.49L25.9398 14.4497Z" stroke="#3F3F3F" stroke-width="1.4" stroke-linejoin="round"/>
<path d="M23.8994 27.9703C23.4535 28.0334 22.9986 28.0694 22.5347 28.0694C17.2697 28.0694 13 23.7998 13 18.5347C13 13.2697 17.2697 9 22.5347 9C27.7998 9 32.0694 13.2697 32.0694 18.5347C32.0694 20.2732 31.6055 21.8991 30.7948 23.2998" stroke="#3F3F3F" stroke-width="1.4" stroke-linecap="round" stroke-linejoin="round"/>
<path d="M28.6646 27.3848H30.0248C30.4526 27.3848 31.1282 27.655 31.3849 28.0649H32.7451C33.3847 28.0649 34.1053 28.6594 34.1053 29.425H35.4655C36.105 29.425 36.8256 30.0195 36.8256 30.7852V37.5951C36.8256 38.9733 35.4655 40.0812 35.4655 41" stroke="#3F3F3F" stroke-width="1.4" stroke-miterlimit="10"/>
<path d="M31.385 28.0649V31.4699" stroke="#3F3F3F" stroke-width="1.4" stroke-miterlimit="10"/>
<path d="M34.1097 29.4294V32.1498" stroke="#3F3F3F" stroke-width="1.4" stroke-miterlimit="10"/>
<path d="M28.6647 31.47V23.3C28.6737 22.5478 28.0566 21.9443 27.3045 21.9398C26.5523 21.9308 25.9488 22.5253 25.9398 23.2775C25.9398 23.2775 25.9398 31.461 25.9398 33.6814C25.9398 33.8661 25.7056 33.9562 25.584 33.812C25.0976 33.2581 24.0122 32.024 23.215 31.47C22.7105 31.1187 22.0124 31.0917 21.454 31.3529C20.6658 31.7267 20.4991 32.7716 21.0846 33.4202C22.8457 35.3704 23.4672 37.9871 25.2597 39.6356C25.9758 40.3517 25.9398 40.6129 25.9398 40.9957" stroke="#3F3F3F" stroke-width="1.4" stroke-miterlimit="10"/>
</svg>
