<svg width="25" height="25" viewBox="0 0 25 25" fill="none" xmlns="http://www.w3.org/2000/svg">
<path fill-rule="evenodd" clip-rule="evenodd" d="M12.5 3.77454C10.0556 3.77454 9.7496 3.78474 8.7896 3.82854C7.8314 3.87234 7.1768 4.02474 6.6044 4.24734C6.0044 4.47294 5.4602 4.82694 5.0102 5.28534C4.55253 5.73482 4.19831 6.27863 3.9722 6.87894C3.7508 7.45134 3.5978 8.10654 3.554 9.06474C3.5108 10.0241 3.5 10.3295 3.5 12.7745C3.5 15.2195 3.5102 15.5249 3.554 16.4849C3.5978 17.4431 3.7502 18.0977 3.9728 18.6701C4.1984 19.2701 4.5524 19.8143 5.0108 20.2643C5.46029 20.722 6.00411 21.0762 6.6044 21.3023C7.1768 21.5243 7.8314 21.6767 8.7896 21.7205C9.7496 21.7643 10.0556 21.7745 12.5 21.7745C14.9444 21.7745 15.2504 21.7643 16.2104 21.7205C17.1686 21.6767 17.8232 21.5243 18.3956 21.3017C18.9956 21.0761 19.5398 20.7221 19.9898 20.2637C20.4475 19.8143 20.8017 19.2704 21.0278 18.6701C21.2498 18.0977 21.4022 17.4431 21.446 16.4849C21.4898 15.5249 21.5 15.2189 21.5 12.7745C21.5 10.3301 21.4898 10.0241 21.446 9.06414C21.4022 8.10594 21.2498 7.45134 21.0272 6.87894C20.8012 6.27837 20.447 5.73433 19.9892 5.28474C19.5397 4.82707 18.9959 4.47285 18.3956 4.24674C17.8232 4.02534 17.168 3.87234 16.2098 3.82854C15.2504 3.78534 14.945 3.77454 12.5 3.77454ZM12.5 5.39634C14.903 5.39634 15.188 5.40534 16.1372 5.44854C17.0144 5.48874 17.4908 5.63454 17.8082 5.75874C18.2282 5.92134 18.5282 6.11694 18.8432 6.43134C19.1582 6.74634 19.3532 7.04634 19.5158 7.46634C19.6394 7.78374 19.7858 8.26014 19.826 9.13734C19.8692 10.0865 19.8782 10.3715 19.8782 12.7745C19.8782 15.1775 19.8692 15.4625 19.826 16.4117C19.7858 17.2889 19.64 17.7653 19.5158 18.0827C19.3718 18.4737 19.1419 18.8273 18.8432 19.1177C18.5528 19.4165 18.1992 19.6464 17.8082 19.7903C17.4908 19.9139 17.0144 20.0603 16.1372 20.1005C15.188 20.1437 14.9036 20.1527 12.5 20.1527C10.0964 20.1527 9.812 20.1437 8.8628 20.1005C7.9856 20.0603 7.5092 19.9145 7.1918 19.7903C6.80087 19.6463 6.4472 19.4165 6.1568 19.1177C5.85811 18.8273 5.62828 18.4736 5.4842 18.0827C5.3606 17.7653 5.2142 17.2889 5.174 16.4117C5.1308 15.4625 5.1218 15.1775 5.1218 12.7745C5.1218 10.3715 5.1308 10.0865 5.174 9.13734C5.2142 8.26014 5.36 7.78374 5.4842 7.46634C5.6468 7.04634 5.8424 6.74634 6.1568 6.43134C6.44716 6.13256 6.80085 5.90272 7.1918 5.75874C7.5092 5.63514 7.9856 5.48874 8.8628 5.44854C9.812 5.40534 10.097 5.39634 12.5 5.39634Z" fill="#FDFDFD"/>
<path fill-rule="evenodd" clip-rule="evenodd" d="M12.5 15.7775C12.1057 15.7775 11.7152 15.6999 11.3508 15.5489C10.9865 15.398 10.6554 15.1768 10.3766 14.898C10.0977 14.6191 9.87653 14.2881 9.72561 13.9237C9.5747 13.5594 9.49702 13.1689 9.49702 12.7745C9.49702 12.3802 9.5747 11.9897 9.72561 11.6253C9.87653 11.261 10.0977 10.93 10.3766 10.6511C10.6554 10.3722 10.9865 10.151 11.3508 10.0001C11.7152 9.84921 12.1057 9.77154 12.5 9.77154C13.2965 9.77154 14.0603 10.0879 14.6235 10.6511C15.1866 11.2143 15.503 11.9781 15.503 12.7745C15.503 13.571 15.1866 14.3348 14.6235 14.898C14.0603 15.4612 13.2965 15.7775 12.5 15.7775ZM12.5 8.14854C11.2731 8.14854 10.0965 8.63592 9.22895 9.50346C8.3614 10.371 7.87402 11.5476 7.87402 12.7745C7.87402 14.0014 8.3614 15.1781 9.22895 16.0456C10.0965 16.9132 11.2731 17.4005 12.5 17.4005C13.7269 17.4005 14.9036 16.9132 15.7711 16.0456C16.6386 15.1781 17.126 14.0014 17.126 12.7745C17.126 11.5476 16.6386 10.371 15.7711 9.50346C14.9036 8.63592 13.7269 8.14854 12.5 8.14854ZM18.4718 8.06454C18.4718 8.35455 18.3566 8.63269 18.1515 8.83776C17.9465 9.04283 17.6683 9.15804 17.3783 9.15804C17.0883 9.15804 16.8102 9.04283 16.6051 8.83776C16.4 8.63269 16.2848 8.35455 16.2848 8.06454C16.2848 7.77452 16.4 7.49639 16.6051 7.29132C16.8102 7.08625 17.0883 6.97104 17.3783 6.97104C17.6683 6.97104 17.9465 7.08625 18.1515 7.29132C18.3566 7.49639 18.4718 7.77452 18.4718 8.06454Z" fill="#FDFDFD"/>
</svg>
