<svg width="32" height="33" viewBox="0 0 32 33" fill="none" xmlns="http://www.w3.org/2000/svg">
<path fill-rule="evenodd" clip-rule="evenodd" d="M16 0.774414C7.16344 0.774414 0 7.93786 0 16.7744C0 25.611 7.16344 32.7744 16 32.7744C24.8366 32.7744 32 25.611 32 16.7744C32 7.93786 24.8366 0.774414 16 0.774414ZM12.4822 8.29249C13.3924 8.25107 13.6833 8.24093 16.0008 8.24093H15.9981C18.3164 8.24093 18.6062 8.25107 19.5164 8.29249C20.4248 8.33409 21.0453 8.47791 21.5893 8.68894C22.1511 8.90672 22.6257 9.19828 23.1004 9.67295C23.5751 10.1473 23.8667 10.6234 24.0853 11.1846C24.2951 11.7272 24.4391 12.3473 24.4818 13.2557C24.5227 14.166 24.5333 14.4568 24.5333 16.7744C24.5333 19.0919 24.5227 19.382 24.4818 20.2923C24.4391 21.2004 24.2951 21.8206 24.0853 22.3634C23.8667 22.9245 23.5751 23.4006 23.1004 23.8749C22.6263 24.3495 22.1509 24.6418 21.5898 24.8598C21.0469 25.0708 20.4261 25.2146 19.5176 25.2562C18.6074 25.2976 18.3174 25.3078 15.9997 25.3078C13.6824 25.3078 13.3917 25.2976 12.4815 25.2562C11.5732 25.2146 10.9529 25.0708 10.41 24.8598C9.84908 24.6418 9.37299 24.3495 8.89885 23.8749C8.42436 23.4006 8.1328 22.9245 7.91466 22.3632C7.70381 21.8206 7.55999 21.2005 7.51821 20.2921C7.47697 19.3818 7.46666 19.0919 7.46666 16.7744C7.46666 14.4568 7.47732 14.1658 7.51804 13.2556C7.55892 12.3475 7.70293 11.7272 7.91448 11.1844C8.13315 10.6234 8.42471 10.1473 8.89938 9.67295C9.3737 9.19845 9.84979 8.90689 10.411 8.68894C10.9536 8.47791 11.5737 8.33409 12.4822 8.29249Z" fill="#FDFDFD"/>
<path fill-rule="evenodd" clip-rule="evenodd" d="M15.2352 9.77752C15.3839 9.77729 15.5438 9.77736 15.7163 9.77744L16.0008 9.77752C18.2792 9.77752 18.5492 9.7857 19.449 9.82659C20.281 9.86464 20.7325 10.0037 21.0333 10.1205C21.4316 10.2751 21.7155 10.46 22.014 10.7587C22.3126 11.0574 22.4975 11.3418 22.6526 11.74C22.7694 12.0405 22.9086 12.492 22.9464 13.324C22.9873 14.2236 22.9962 14.4938 22.9962 16.7712C22.9962 19.0486 22.9873 19.3188 22.9464 20.2183C22.9084 21.0504 22.7694 21.5019 22.6526 21.8024C22.4979 22.2006 22.3126 22.4841 22.014 22.7826C21.7153 23.0813 21.4317 23.2662 21.0333 23.4209C20.7329 23.5382 20.281 23.6769 19.449 23.7149C18.5494 23.7558 18.2792 23.7647 16.0008 23.7647C13.7222 23.7647 13.4521 23.7558 12.5525 23.7149C11.7205 23.6765 11.269 23.5375 10.968 23.4207C10.5698 23.266 10.2853 23.0811 9.98665 22.7825C9.68798 22.4838 9.50309 22.2001 9.34806 21.8016C9.23126 21.5012 9.09206 21.0496 9.05419 20.2176C9.0133 19.3181 9.00513 19.0478 9.00513 16.7691C9.00513 14.4903 9.0133 14.2215 9.05419 13.3219C9.09224 12.4899 9.23126 12.0383 9.34806 11.7375C9.50273 11.3393 9.68798 11.0549 9.98665 10.7562C10.2853 10.4575 10.5698 10.2726 10.968 10.1176C11.2688 10.0003 11.7205 9.86161 12.5525 9.82339C13.3398 9.78784 13.6448 9.77717 15.2352 9.77539V9.77752ZM20.5559 11.1944C19.9905 11.1944 19.5318 11.6526 19.5318 12.2181C19.5318 12.7834 19.9905 13.2421 20.5559 13.2421C21.1212 13.2421 21.5799 12.7834 21.5799 12.2181C21.5799 11.6527 21.1212 11.1941 20.5559 11.1941V11.1944ZM11.6185 16.7728C11.6185 14.3527 13.5805 12.3906 16.0006 12.3905C18.4207 12.3905 20.3823 14.3526 20.3823 16.7728C20.3823 19.1929 18.4209 21.1541 16.0007 21.1541C13.5806 21.1541 11.6185 19.1929 11.6185 16.7728Z" fill="#FDFDFD"/>
<path d="M16.0008 13.9297C17.5717 13.9297 18.8453 15.2031 18.8453 16.7742C18.8453 18.345 17.5717 19.6186 16.0008 19.6186C14.4298 19.6186 13.1564 18.345 13.1564 16.7742C13.1564 15.2031 14.4298 13.9297 16.0008 13.9297V13.9297Z" fill="#FDFDFD"/>
</svg>
