<svg width="25" height="25" viewBox="0 0 25 25" fill="none" xmlns="http://www.w3.org/2000/svg">
<path d="M21.5 5.09807V20.451C21.5 20.802 21.3606 21.1387 21.1123 21.3869C20.8641 21.6351 20.5275 21.7745 20.1765 21.7745H4.82353C4.47251 21.7745 4.13586 21.6351 3.88765 21.3869C3.63944 21.1387 3.5 20.802 3.5 20.451V5.09807C3.5 4.74704 3.63944 4.4104 3.88765 4.16219C4.13586 3.91398 4.47251 3.77454 4.82353 3.77454H20.1765C20.5275 3.77454 20.8641 3.91398 21.1123 4.16219C21.3606 4.4104 21.5 4.74704 21.5 5.09807ZM8.79412 10.6569H6.14706V19.1275H8.79412V10.6569ZM9.03235 7.74512C9.03375 7.5449 8.99569 7.34635 8.92035 7.16083C8.84502 6.97531 8.73387 6.80645 8.59328 6.66388C8.45268 6.52132 8.28537 6.40784 8.10091 6.32993C7.91646 6.25203 7.71846 6.21122 7.51824 6.20983H7.47059C7.0634 6.20983 6.67289 6.37158 6.38497 6.65951C6.09705 6.94743 5.93529 7.33794 5.93529 7.74512C5.93529 8.15231 6.09705 8.54282 6.38497 8.83074C6.67289 9.11867 7.0634 9.28042 7.47059 9.28042C7.67083 9.28534 7.87008 9.25077 8.05696 9.17866C8.24383 9.10656 8.41467 8.99833 8.5597 8.86018C8.70474 8.72203 8.82113 8.55665 8.90223 8.3735C8.98333 8.19035 9.02755 7.99302 9.03235 7.79277V7.74512ZM18.8529 13.9816C18.8529 11.4351 17.2329 10.4451 15.6235 10.4451C15.0966 10.4187 14.5719 10.531 14.1019 10.7706C13.6318 11.0103 13.2328 11.369 12.9447 11.811H12.8706V10.6569H10.3824V19.1275H13.0294V14.6222C12.9911 14.1608 13.1365 13.7029 13.4339 13.348C13.7313 12.9931 14.1567 12.7699 14.6176 12.7269H14.7182C15.56 12.7269 16.1847 13.2563 16.1847 14.5904V19.1275H18.8318L18.8529 13.9816Z" fill="#FDFDFD"/>
</svg>
