<svg width="50" height="50" viewBox="0 0 50 50" fill="none" xmlns="http://www.w3.org/2000/svg">
<path d="M26.4289 39.9998V37.9665C26.4289 36.9055 25.7494 35.5517 25.7494 32.5462C25.7494 30.5548 29.5807 27.5702 29.5807 27.5702L33.2029 25.0927C35.6178 22.1708 34.8965 21.0261 38.6233 21.0261C38.6233 21.0261 38.1685 23.7075 37.2695 25.7669C37.2695 25.7669 35.1526 27.8002 33.8824 29.154" stroke="#3F3F3F" stroke-width="1.4" stroke-linejoin="round"/>
<path d="M38.6234 21.0266V19.6729C38.6234 19.6729 37.9439 13.5312 41.3361 13.5312L42.0156 19.631C42.0156 19.631 41.3361 26.196 41.3361 27.1264C41.3361 28.4802 33.8826 33.2001 33.8826 36.6133V40.0003" stroke="#3F3F3F" stroke-width="1.4" stroke-linejoin="round"/>
<path d="M23.7162 39.9998V37.9665C23.7162 36.9055 24.3957 35.5517 24.3957 32.5462C24.3957 30.5548 20.5644 27.5702 20.5644 27.5702L16.9422 25.0927C14.5273 22.1708 15.2486 21.0261 11.5219 21.0261C11.5219 21.0261 11.9766 23.7075 12.8756 25.7669C12.8756 25.7669 14.9925 27.8002 16.2627 29.154" stroke="#3F3F3F" stroke-width="1.4" stroke-linejoin="round"/>
<path d="M11.5218 21.0266V19.6729C11.5218 19.6729 12.2013 13.5312 8.80901 13.5312L8.12952 19.631C8.12952 19.631 8.80901 26.196 8.80901 27.1264C8.80901 28.4802 16.2626 33.2001 16.2626 36.6133V40.0003" stroke="#3F3F3F" stroke-width="1.4" stroke-linejoin="round"/>
<path d="M25.1223 23.5352C25.1223 23.5352 26.7478 22.7198 30.5112 19.0505C34.7136 14.9526 32.5654 10.515 29.7272 10.0759C27.166 9.67868 25.9115 10.8913 25.0752 12.5221C24.2389 10.8913 22.9845 9.67868 20.4233 10.0759C17.5851 10.515 15.4368 14.9474 19.6392 19.0505C23.4026 22.7198 25.0282 23.5352 25.0282 23.5352H25.1223Z" stroke="#3F3F3F" stroke-width="1.4" stroke-linecap="round" stroke-linejoin="round"/>
</svg>
