<svg width="36" height="31" viewBox="0 0 36 31" fill="none" xmlns="http://www.w3.org/2000/svg">
<path d="M19.4289 30.9998V28.9665C19.4289 27.9055 18.7494 26.5517 18.7494 23.5462C18.7494 21.5548 22.5807 18.5702 22.5807 18.5702L26.2029 16.0927C28.6178 13.1708 27.8965 12.0261 31.6233 12.0261C31.6233 12.0261 31.1685 14.7075 30.2695 16.7669C30.2695 16.7669 28.1526 18.8002 26.8824 20.154" stroke="#3F3F3F" stroke-width="1.4" stroke-linejoin="round"/>
<path d="M31.6234 12.0266V10.6729C31.6234 10.6729 30.9439 4.53125 34.3361 4.53125L35.0156 10.631C35.0156 10.631 34.3361 17.196 34.3361 18.1264C34.3361 19.4802 26.8826 24.2001 26.8826 27.6133V31.0003" stroke="#3F3F3F" stroke-width="1.4" stroke-linejoin="round"/>
<path d="M16.7162 30.9998V28.9665C16.7162 27.9055 17.3957 26.5517 17.3957 23.5462C17.3957 21.5548 13.5644 18.5702 13.5644 18.5702L9.94215 16.0927C7.52732 13.1708 8.24863 12.0261 4.52185 12.0261C4.52185 12.0261 4.97659 14.7075 5.87562 16.7669C5.87562 16.7669 7.99252 18.8002 9.26265 20.154" stroke="#3F3F3F" stroke-width="1.4" stroke-linejoin="round"/>
<path d="M4.52177 12.0266V10.6729C4.52177 10.6729 5.20127 4.53125 1.80901 4.53125L1.12952 10.631C1.12952 10.631 1.80901 17.196 1.80901 18.1264C1.80901 19.4802 9.26258 24.2001 9.26258 27.6133V31.0003" stroke="#3F3F3F" stroke-width="1.4" stroke-linejoin="round"/>
<path d="M18.1223 14.5352C18.1223 14.5352 19.7478 13.7198 23.5112 10.0505C27.7136 5.95262 25.5654 1.51498 22.7272 1.07592C20.166 0.678679 18.9115 1.89132 18.0752 3.52211C17.2389 1.89132 15.9845 0.678679 13.4233 1.07592C10.5851 1.51498 8.43681 5.9474 12.6392 10.0505C16.4026 13.7198 18.0282 14.5352 18.0282 14.5352H18.1223Z" stroke="#3F3F3F" stroke-width="1.4" stroke-linecap="round" stroke-linejoin="round"/>
</svg>
