<svg width="32" height="33" viewBox="0 0 32 33" fill="none" xmlns="http://www.w3.org/2000/svg">
<path fill-rule="evenodd" clip-rule="evenodd" d="M16 0.774414C7.16344 0.774414 0 7.93786 0 16.7744C0 25.611 7.16344 32.7744 16 32.7744C24.8366 32.7744 32 25.611 32 16.7744C32 7.93786 24.8366 0.774414 16 0.774414ZM22.6677 11.2746C23.4021 11.4761 23.9804 12.0698 24.1767 12.8238C24.5333 14.1904 24.5333 17.0417 24.5333 17.0417C24.5333 17.0417 24.5333 19.8929 24.1767 21.2595C23.9804 22.0135 23.4021 22.6073 22.6677 22.8089C21.3369 23.175 16 23.175 16 23.175C16 23.175 10.6631 23.175 9.33216 22.8089C8.59781 22.6073 8.01948 22.0135 7.82322 21.2595C7.46666 19.8929 7.46666 17.0417 7.46666 17.0417C7.46666 17.0417 7.46666 14.1904 7.82322 12.8238C8.01948 12.0698 8.59781 11.4761 9.33216 11.2746C10.6631 10.9083 16 10.9083 16 10.9083C16 10.9083 21.3369 10.9083 22.6677 11.2746Z" fill="#FDFDFD"/>
<path d="M14.4 19.9749V14.6416L18.6667 17.3084L14.4 19.9749Z" fill="#FDFDFD"/>
</svg>
